<svg width="113" height="114" viewBox="0 0 113 114" fill="none" xmlns="http://www.w3.org/2000/svg">
<circle cx="56.5605" cy="56.8784" r="56.1924" fill="white"/>
<path d="M104.687 27.9553L77.5391 27.7478L76.916 109.226C97.7391 101.118 112.587 81.0027 112.768 57.307C112.85 46.5594 109.857 36.5313 104.687 27.9553Z" fill="#C53639"/>
<path fill-rule="evenodd" clip-rule="evenodd" d="M68.937 27.5688C68.8848 34.5772 68.8321 41.4144 68.7813 47.9768C68.6191 69.2545 68.4642 90.5235 68.3163 111.808C64.3874 112.642 60.317 113.102 56.1329 113.069C44.3001 112.979 33.3711 109.224 24.3607 102.911C24.3747 101.215 24.3878 99.5186 24.4009 97.8181C24.4067 97.0669 24.4125 96.3148 24.4184 95.5613C24.4655 89.424 24.4957 83.8332 24.526 78.2378C24.5849 67.3337 24.6439 56.4121 24.828 41.3938C24.8784 37.9432 23.6547 37.2677 20.6884 37.3249C20.3539 37.33 20.0338 37.3266 19.7295 37.3234C17.4791 37.2999 16.0871 37.2853 16.0604 40.7302C15.9883 50.2383 15.9213 59.5972 15.8551 68.8602C15.7914 77.7673 15.7283 86.5857 15.6619 95.3626C6.09259 85.1984 0.238237 71.5071 0.353226 56.4484C0.461299 42.3451 5.75836 29.4933 14.4206 19.6913C13.719 20.8309 13.3098 22.1708 13.2989 23.6075C13.2672 27.773 16.6413 31.2035 20.8304 31.2355C25.0071 31.2676 28.4297 27.8888 28.4618 23.7229C28.4943 19.5281 25.1244 16.1063 20.9463 16.0742C19.2778 16.0618 17.7302 16.589 16.4699 17.4931C26.7685 7.01811 41.138 0.566315 56.9924 0.687683C73.7794 0.81591 88.7481 8.32763 98.9601 20.0717L35.4587 19.5868C34.1897 19.9765 33.6771 20.9386 33.717 22.9792C33.7747 25.7077 33.8736 27.3014 37.4594 27.3288C46.7474 27.3989 64.8991 27.5377 68.937 27.5688Z" fill="#C53639"/>
</svg>
