<?xml version="1.0" encoding="UTF-8"?>
<svg id="Camada_1" data-name="Camada 1" xmlns="http://www.w3.org/2000/svg" viewBox="0 0 788.96 305.62">
  <defs>
    <style>
      .cls-1, .cls-2 {
        fill: #fff;
      }

      .cls-2 {
        fill-rule: evenodd;
      }
    </style>
  </defs>
  <path class="cls-1" d="M80.99,58.18c20.28.15,59.9.46,68.71.52-.11,15.31-.23,30.24-.34,44.57-.35,46.46-.69,92.9-1.01,139.38-.86.18-1.72.36-2.59.52h-.02s-.02,0-.02,0h0S72.68,80.44,72.68,80.44l-3.7-43.44s128.66-13.5,141.33,0c1.74,1.84,3.33,3.63,4.8,5.33l-138.48-1.06c-2.77.85-3.89,2.95-3.81,7.41.13,5.96.35,9.44,8.17,9.5Z"/>
  <path class="cls-1" d="M228.39,60.65c-.48,1.71-46.84,169.13-58.24,175.12-1,.43-2.01.84-3.03,1.24l1.36-177.92,59.26.46c.21.35.42.7.63,1.06,0,0,.02.02.02.04Z"/>
  <path class="cls-2" d="M369.18,94.69c-22.07-31.1-73.53-39.45-106.46-16.9-8.6,5.89-15.1,12.7-19.86,20.22-10.07,15.9-12.36,35-10.36,55.49.59,5.96,1.66,11.6,3.25,16.91,5.81,19.49,18.55,34.33,39.66,42.7,21.46,8.52,43.29,8.15,64.72-.15,10.36-4,19.37-10.34,26.44-20.98-.13-.3-.23-.6-.32-.91-6.01-2.03-10.02-10.35-16.65-3.94-13.83,13.42-30.35,16.62-48.58,15.62-30.79-1.69-52.04-24.74-51.16-56.89,3.51.03,6.49.05,9.46.08,38.5.29,76.99.59,115.48.88,4.17.03,8.19.51,7.99-5.85-.61-16.63-3.81-32.46-13.61-46.28ZM250.81,130.21c2.06-29.77,24.28-48.78,56.52-48.76,32.32.03,54.47,19.45,56.44,49.62-37.66-.28-75.3-.57-112.96-.86Z"/>
  <path class="cls-1" d="M53.59,224.04s-.07-.04-.11-.07c-.36-.24-.72-.49-1.08-.74.05-5.35.09-10.68.13-16.05.3-39.52.28-68.67.89-118.29.11-7.53-2.56-9.01-9.03-8.88-6.13.09-10.04-1.11-10.11,7.43-.31,40.73-.57,80.2-.87,119.3-.77-.82-1.52-1.64-2.27-2.48-.02-.02-.04-.04-.05-.06l-2.83-130.84,33.1,1.24s5.97,157.59-7.77,149.44Z"/>
  <path class="cls-1" d="M72.82,48.68c.13,5.96.35,9.44,8.17,9.5,20.28.15,59.9.46,68.71.52-.11,15.31-.23,30.24-.34,44.57-.35,46.46-.69,92.9-1.01,139.38-.86.18-1.72.36-2.59.52h-.04c-7.76,1.49-15.76,2.3-23.97,2.24-25.3-.2-48.72-8.07-68.16-21.37-.04-.02-.07-.05-.11-.07-.36-.24-.72-.49-1.08-.74.05-5.35.09-10.68.13-16.05.3-39.52.28-68.67.89-118.29.11-7.53-2.56-9.01-9.03-8.88-6.13.09-10.04-1.11-10.11,7.43-.31,40.73-.57,80.2-.87,119.3-.77-.82-1.52-1.64-2.27-2.48-.02-.02-.04-.04-.05-.06C11.59,182.3-.24,153.41,0,121.77c.24-30.78,11.78-58.82,30.66-80.21-1.5,2.48-2.38,5.38-2.4,8.49-.07,9.1,7.3,16.59,16.44,16.66,9.12.07,16.59-7.31,16.66-16.41.07-9.16-7.29-16.63-16.41-16.7-3.62-.03-6.98,1.11-9.72,3.07C57.69,13.82,89.05-.26,123.63,0c34.03.26,64.65,14.43,86.68,37,1.7,1.73,3.34,3.5,4.93,5.33h-.13l-138.48-1.06c-2.77.85-3.89,2.95-3.81,7.41Z"/>
  <path class="cls-1" d="M35.22,36.68c-1.56,1.57-3.08,3.2-4.55,4.86,1.18-1.91,2.73-3.57,4.55-4.86Z"/>
  <path class="cls-1" d="M245.38,123.64c-.12,16.6-3.54,32.39-9.63,46.77-12.47,29.45-36.13,52.98-65.6,65.36-1,.43-2.01.84-3.03,1.24l1.36-177.92,59.26.46c.21.35.42.7.63,1.06,0,0,.02.02.02.04,6.73,11.42,11.7,23.99,14.47,37.36,1.71,8.27,2.59,16.84,2.52,25.63Z"/>
  <g>
    <path class="cls-2" d="M351.09,267.21c-8.67-.85-15.98,3.58-18.2,11.3-.73,2.51-.96,5.25-.91,7.89.18,7.24,4.18,12.96,10.52,15.14,4.64,1.6,9.35,1.6,13.98-.12,2.61-.94,4.82-2.51,6.71-5.12-1.54-.46-2.54-2.5-4.01-1.06-3.4,3.31-7.47,3.99-11.9,3.63-6.76-.56-11.69-6.25-11.16-13.07.67,0,1.35,0,2.03,0,8.89.07,17.76.09,26.67.23,1.52.02,1.98-.43,1.94-2-.29-9.55-6.16-15.88-15.67-16.83ZM336.21,282.17c1.21-7.7,6.06-11.54,13.96-11.24,6.91.24,11.62,4.64,12.2,11.44-8.68-.06-17.37-.13-26.16-.2Z"/>
    <path class="cls-2" d="M767.24,270.11c-8.67-.85-15.98,3.56-18.21,11.26-.76,2.51-.97,5.29-.91,7.92.19,7.23,4.17,12.94,10.5,15.14,4.66,1.6,9.37,1.6,14.01-.13,2.6-.96,4.77-2.5,6.69-5.16-1.48-1.84-2.51-2.43-4.01-1.02-3.38,3.3-7.46,3.99-11.89,3.63-6.77-.56-11.7-6.24-11.15-13.1.65,0,1.34.01,2.02.01,8.88.07,17.76.1,26.66.25,1.53.02,1.98-.42,1.95-1.98-.29-9.55-6.16-15.88-15.66-16.82ZM752.33,285.05c1.22-7.7,6.07-11.54,13.97-11.24,6.9.24,11.63,4.63,12.21,11.44-8.71-.07-17.38-.13-26.18-.2Z"/>
    <path class="cls-2" d="M667.35,269.79c-8.69-.85-16.01,3.55-18.26,11.27-.7,2.52-.95,5.25-.88,7.87.17,7.28,4.17,12.96,10.5,15.14,4.65,1.66,9.39,1.65,13.99-.07,2.62-.97,4.82-2.53,6.7-5.16-1.48-1.86-2.52-2.48-4-1.02-3.39,3.29-7.46,3.96-11.89,3.62-6.79-.58-11.7-6.25-11.16-13.1.65,0,1.34.01,2.03.01,8.88.07,17.76.11,26.66.23,1.53.02,2-.41,1.93-1.98-.28-9.53-6.13-15.9-15.62-16.81ZM652.42,284.72c1.24-7.69,6.07-11.55,13.96-11.24,6.94.25,11.64,4.65,12.23,11.44-8.69-.06-17.39-.13-26.19-.2Z"/>
    <path class="cls-2" d="M608.93,268.58c-8.69-.85-16.01,3.56-18.23,11.28-.73,2.53-.97,5.28-.92,7.92.18,7.24,4.19,12.9,10.52,15.13,4.66,1.61,9.38,1.6,13.99-.12,2.62-.94,4.8-2.5,6.72-5.14-1.49-1.87-2.54-2.48-4-1.05-3.41,3.31-7.47,4.02-11.91,3.64-6.77-.57-11.68-6.27-11.17-13.12.68.01,1.37.01,2.04.01,8.87.07,17.77.14,26.66.26,1.55.02,1.98-.42,1.93-1.97-.28-9.56-6.15-15.89-15.63-16.84ZM594,283.53c1.22-7.71,6.08-11.52,13.98-11.24,6.92.25,11.63,4.64,12.21,11.44-8.68-.07-17.39-.14-26.19-.2Z"/>
    <path class="cls-2" d="M297.4,283.33c-.11-4.68-1.69-8.87-5.19-12.16-5.23-4.89-14.09-5.97-20.66-2.53-6.26,3.31-9.81,10.58-8.83,17.93,1.01,7.28,4.49,12.74,11.8,14.82,7.27,2.06,13.63.2,18.8-6.17,0,1.84.03,3.24-.04,4.61-.09,1.58.91,1.45,1.93,1.45.99-.03,2.17.35,2.17-1.41-.03-5.5.15-11.03.02-16.54ZM293.33,284.41c.02,7.37-3.43,12.39-9.81,13.74-8.91,1.86-16.33-2.84-16.79-12.45-.07-1.94.03-3.97.53-5.85,1.67-6.6,7.5-10.18,14.89-9.33,6.54.75,10.85,5.43,11.19,12.15.03.57-.01,1.16-.01,1.74Z"/>
    <path class="cls-2" d="M402.97,291.17c-.02,3.09-.13,6.17-.05,9.22.06,1.68-.83,1.72-2.08,1.71-1.23,0-2.08-.02-2.03-1.72.12-5.22.14-10.45.13-15.68,0-1.56-.1-3.14-.42-4.68-1.23-5.83-5.59-8.98-11.99-8.81-5.99.15-10.18,3.53-10.93,9.38-.5,3.96-.36,8-.48,12.02-.04,2.66-.05,5.32-.04,8.01,0,.99-.46,1.45-1.38,1.25-.94-.22-2.65.78-2.63-1.01.05-6.97-.26-14.03.62-20.89,1.28-9.98,9.62-13.27,17.52-12.34,8.39.96,13.08,6.09,13.63,14.5.17,3.01-.02,6.05-.04,9.06h.16Z"/>
    <path class="cls-2" d="M322.68,271.47c-6.46-.05-12.56-.11-18.66-.1-1.4,0-1.91-.36-1.91-1.85.01-1.5.61-1.71,1.9-1.69,7.02.09,14.06.11,21.1.19.85,0,2.41.31,2.43.55.07,1.22.13,2.74-.51,3.64-2.23,3.16-4.75,6.17-7.17,9.23-3.99,5.04-7.97,10.11-11.96,15.18-.25.31-.46.63-.91,1.26.88,0,1.48,0,2.1.01,5.57.04,11.15.1,16.74.09,1.32,0,1.71.41,1.66,1.7-.03,1.22-.17,1.86-1.69,1.85-7.09-.11-14.2-.12-21.29-.18-2.6-.02-3.38-1.27-2.26-3.69.3-.69.79-1.26,1.26-1.88,6.06-7.65,12.13-15.3,18.17-22.95.3-.34.54-.69,1-1.37Z"/>
    <path class="cls-2" d="M443.47,241.93c-1.03-.18-2.15-.32-3.19-.17-.31.1-.64,1.17-.65,1.81-.09,9.14-.16,18.27-.23,27.41-.01.66-.01,1.28-.02,1.92-5.06-5.95-11.41-7.35-18.47-5.92-15.27,3.07-16.61,22.34-8.93,30.54,4.86,5.32,12.99,7.16,20.23,4.57,6.72-2.42,11.06-8.4,11.22-16.27.27-14.2.29-28.42.38-42.62,0-.43-.15-1.26-.34-1.27ZM429.92,298.73c-8.41,2.33-17.88-1.67-18.18-12.87-.09-2.53.23-5.22,1.1-7.57,2.29-6.22,8.2-9,15.65-7.8,5.98.93,10.26,5.72,10.71,12.08.05.78.09,1.57.1,1.99-.06,7.43-3.45,12.51-9.38,14.17Z"/>
    <path class="cls-2" d="M546.95,242.46c-1.04-.16-2.29-.24-3.35-.05-.29.06-.48,1.08-.49,1.71-.11,9.14-.16,18.28-.23,27.43,0,.63,0,1.27-.02,1.91-5.07-5.95-11.62-7.46-18.67-6.06-15.27,3.09-16.38,22.45-8.73,30.7,4.86,5.26,12.99,7.16,20.23,4.55,6.73-2.43,11.07-8.42,11.22-16.3.27-14.2.28-28.38.39-42.59.01-.44-.15-1.26-.35-1.3ZM533.4,299.27c-8.41,2.33-17.89-1.67-18.2-12.85-.07-2.55.27-5.25,1.13-7.6,2.27-6.18,8.19-8.98,15.63-7.8,5.98.96,10.25,5.75,10.75,12.11.05.79.04,1.55.05,1.98-.06,7.42-3.41,12.5-9.36,14.16Z"/>
    <path class="cls-2" d="M480.82,273.84c-5.28-7.45-17.55-9.37-25.45-4.07-7.34,4.95-9.74,16.91-5.08,25.33,3.72,6.63,11.97,9.87,20.35,7.98,8.43-1.91,13.25-8.29,13.43-18.21-.06-3.6-.8-7.55-3.25-11.03ZM477.48,294.08c-2.81,4.8-9.09,6.74-15.52,5.19-5.47-1.32-9.1-5.59-9.66-11.45-.1-.88-.12-1.8-.14-2.41.02-7.44,3.22-12.31,9.07-14.1,6.52-1.99,13.55.09,16.46,5.25,3.2,5.78,3.11,11.84-.21,17.52Z"/>
    <path class="cls-2" d="M737.67,273.9c0,.93-.01,1.62-.02,2.35-.07,9.01-.19,18.04-.18,27.05.01,1.76-.6,2.09-2.21,2.08-1.61-.01-2.09-.45-2.08-2.08.16-9.08.18-18.15.25-27.24,0-.65,0-1.33.02-2.2-2.96-.02-5.8-.09-8.64-.03-1.38.02-1.96-.34-1.92-1.83,0-1.42.38-1.97,1.86-1.93,2.85.14,5.69.09,8.73.11.03-4.41.16-8.65.06-12.9-.06-1.84.74-2.07,2.28-2.08,1.63-.03,2.09.53,2.01,2.15-.14,4.19-.09,8.38-.13,12.86,2.89.02,5.66.16,8.42,0,1.74-.05,2.18.58,2.1,2.19-.05,1.21-.45,1.62-1.62,1.56-2.9-.07-5.81-.06-8.92-.09Z"/>
    <path class="cls-2" d="M645.25,272.81c-1.85-.01-3.54-.16-5.21-.02-4.69.38-6.92,2.7-6.99,7.41-.12,7.33-.14,14.61-.21,21.91-.01,2-1.83,3.1-3.65,2.11-.35-.18-.56-.91-.61-1.37.06-7.66,0-15.36.28-23.01.37-9.54,8.36-12.27,15.82-10.76.44.08.93.91.95,1.38.07.81-.24,1.65-.38,2.36Z"/>
    <g>
      <path class="cls-2" d="M560.9,286.47c-.04,5.28-.11,10.58-.08,15.87,0,1.63-.75,1.75-2.03,1.7-1.19-.04-2.22.13-2.18-1.71.13-10.58.21-21.16.24-31.78-.01-1.83.99-1.66,2.2-1.67,1.25,0,2.05.03,2.01,1.71-.13,5.29-.12,10.59-.16,15.89Z"/>
      <path class="cls-2" d="M558.97,261.29c-2.2-.01-3.63-1.53-3.59-3.75.03-1.99,1.63-3.55,3.67-3.6,2.04-.04,3.69,1.65,3.69,3.72-.01,2.05-1.7,3.66-3.77,3.63Z"/>
    </g>
    <path class="cls-2" d="M577.69,270.34c3.27.02,6.49.11,9.72.04,1.54-.07,1.64.67,1.67,1.89.03,1.32-.42,1.73-1.72,1.68-3.22-.09-6.43-.07-9.92-.09,0,.7,0,1.32-.02,1.93-.06,8.8-.16,17.58-.16,26.38,0,1.55-.43,2-1.99,1.98-1.58-.01-2.12-.42-2.08-2.08.13-8.74.16-17.47.23-26.2,0-.63,0-1.26.02-2.05-1.58-.01-2.98-.07-4.36-.04-1.47.07-1.18-.93-1.21-1.78,0-.88-.14-1.85,1.28-1.75,1.33.05,2.69.02,4.32.03,0-.72,0-1.31.01-1.92.03-3.94,0-7.86.13-11.78.05-1.76.18-3.56.68-5.19,2.22-7.31,11.94-9.56,18.26-4.36,1.08.89,1.07,1.54.29,2.61-.82,1.12-1.35,1.05-2.57.45-1.71-.85-3.68-1.56-5.58-1.72-3.73-.28-6.54,1.88-6.8,5.61-.38,5.33-.18,10.73-.22,16.34Z"/>
    <path class="cls-2" d="M251.63,267.85c3.29.03,6.52.11,9.73.04,1.53-.07,1.64.67,1.68,1.89.03,1.32-.41,1.73-1.72,1.68-3.23-.09-6.43-.07-9.93-.1,0,.71-.01,1.32-.01,1.93-.07,8.8-.16,17.58-.16,26.38-.01,1.56-.44,2-1.99,1.99-1.58-.01-2.1-.42-2.09-2.08.16-8.74.18-17.47.24-26.2,0-.63,0-1.26.02-2.05-1.58-.01-2.95-.07-4.35-.04-1.46.07-1.19-.93-1.2-1.77,0-.88-.16-1.86,1.24-1.75,1.34.05,2.7.02,4.33.03,0-.72.01-1.31.02-1.92.03-3.94,0-7.86.14-11.78.03-1.76.18-3.56.66-5.19,2.24-7.31,11.96-9.56,18.27-4.36,1.07.89,1.09,1.55.3,2.61-.8,1.12-1.36,1.06-2.56.45-1.75-.85-3.69-1.57-5.61-1.72-3.74-.28-6.52,1.88-6.79,5.61-.36,5.33-.18,10.73-.22,16.34Z"/>
    <path class="cls-2" d="M720.66,284.32v-.07c-.59-8.89-5.67-14.34-14.49-15.22-9.8-.95-17.77,4.02-18.52,14.99-.42,6.43-.22,12.9-.38,19.36-.02,1.9,1.17,1.56,2.31,1.62,1.11.04,2.01.03,1.97-1.58-.07-2.67,0-16.59.52-20.78.81-6.12,5.23-9.65,11.51-9.82,6.68-.16,11.28,3.17,12.55,9.29.33,1.58.42,3.26.43,4.9,0,5.42,0,10.84-.15,16.25-.07,1.76.71,1.97,2.16,1.98.99.03,1.6-.09,1.93-.65l.16-20.29Z"/>
  </g>
  <path class="cls-2" d="M543.9,204.65c-.05-19.9.43-39.77.28-59.65-.08-7.5-.5-15.16-2.11-22.47-7.78-35.43-35.1-57.03-72.04-57.49-36.91-.47-65.28,21.04-74.12,56.21-8.22,32.58,3.6,67.29,28.41,84.89,24.94,17.69,72.69,20.66,101.99-17.39-.02,2.93-.04,5.44-.06,7.75-.09,4.52-.17,9.04-.22,13.55-.08,6.64,1.26,9.4,8.62,9.28,6.68-.12,9.15-1.52,9.11-8.78,0-.37,0-.74,0-1.11.16-1.45.14-3.07.14-4.79ZM482.95,201.77c-40.45,7.54-70.09-14.74-71.72-54.38-.36-8.65.25-17.77,2.52-26.08,7.78-28.35,32.77-43.26,64.44-39.46,28.39,3.4,46.84,23.63,48.2,52.81.12,2.5-.02,5.01-.04,7.54-.02,32.06-15.62,54.43-43.41,59.57Z"/>
  <path class="cls-2" d="M788.6,125.55c-1.08-34.28-21.65-56.04-55.06-59.09-24.99-2.26-46.79,4.52-60.87,27.55-.87-.78-1.61-1.17-1.95-1.79-13.54-24.05-44.77-31.34-71.23-24.8-25.67,6.35-41.76,25.58-43.32,54.1-1.28,23.58-1.35,47.25-1.49,70.89-.11,5.52-.21,11.03-.28,16.54-.08,6.78,1.29,9.6,8.8,9.47,6.82-.12,9.34-1.56,9.3-8.96-.04-3.93-.05-7.85-.07-11.78.13-23.49.04-46.98.9-70.42.66-17.88,5.76-34.81,24.44-41.89,26.67-10.13,61.5-2.57,64.4,39.62,1.91,27.87.63,55.96.29,83.96-.08,6.78,1.29,9.6,8.8,9.47,6.82-.12,9.34-1.56,9.3-8.96-.27-25.69-.11-51.38.59-77.05.23-8.36,1.35-17.08,4.13-24.86,7.1-20.05,28.84-29.36,53.11-24.06,14.18,3.12,24.73,10.96,28.61,24.97,2.74,9.97,3.94,20.65,4.13,31.05.43,24.38-.01,48.8-.44,73.19-.12,6.99,4.18,6.47,8.62,6.23,3.96-.2,9.12,1.95,9.11-5.55-.03-29.28,1.09-58.59.18-87.84Z"/>
</svg>