<svg xmlns="http://www.w3.org/2000/svg" viewBox="-64 -61.5 128 128" width="100%" height="100%">

            <defs>
                <style>
                    @font-face {
                        font-family: 'Montserrat';
                        src: url('./fonts/montserrat/Montserrat-Black.ttf') format('truetype');
                        font-weight: 900;
                        font-style: normal;
                    }
                    .vantage-text { font-family: 'Montserrat', sans-serif; font-weight: 900; letter-spacing: 0px; }
                </style>
                <mask id="gap-mask-VANTAGE_AppIcon_Dark">
                    <rect x="-100" y="-100" width="1000" height="400" fill="white" />
                    <path d="M -41 -6 Q 0 -54 41 -6 Q 0 42 -41 -6 Z" fill="black" />
                </mask>
                <g id="vantage-symbol-VANTAGE_AppIcon_Dark">
                    <path d="M -54 -45 L -18 -45 L 0 -6 L 18 -45 L 54 -45 L 10 50 L -10 50 Z" fill="#ffffff" mask="url(#gap-mask-VANTAGE_AppIcon_Dark)" />
                    <path d="M -33 -6 Q 0 -44 33 -6 Q 0 32 -33 -6 Z" fill="#00E5FF" />
                    <path d="M -26 -6 Q 0 -34 26 -6 Q 0 22 -26 -6 Z" fill="#0f172a" />
                    <circle cx="0" cy="-6" r="11" fill="#00E5FF" />
                    <circle cx="4.5" cy="-10.5" r="2.8" fill="#ffffff" />
                </g>
            </defs>

                    <!-- Fundo Arredondado -->
                    <rect x="-64" y="-61.5" width="128" height="128" rx="28" fill="#0f172a" />
                    <!-- Símbolo dimensionado a 80% para criar a margem de respiro perfeita (padding) -->
                    <g transform="translate(0, 2.5) scale(0.8) translate(0, -2.5)">
                        <use href="#vantage-symbol-VANTAGE_AppIcon_Dark" x="0" y="0" />
                    </g>
                
</svg>