<svg xmlns="http://www.w3.org/2000/svg" viewBox="-60 -65 720 130" width="100%" height="100%">

            <defs>
                <style>
                    @font-face {
                        font-family: 'Montserrat';
                        src: url('./fonts/montserrat/Montserrat-Black.ttf') format('truetype');
                        font-weight: 900;
                        font-style: normal;
                    }
                    .vantage-text { font-family: 'Montserrat', sans-serif; font-weight: 900; letter-spacing: 0px; }
                </style>
                <mask id="gap-mask-VANTAGE_Integrado_Light">
                    <rect x="-100" y="-100" width="1000" height="400" fill="white" />
                    <!-- Lente de corte (Gap) -->
                    <path d="M -41 -6 Q 0 -54 41 -6 Q 0 42 -41 -6 Z" fill="black" />
                </mask>
                <g id="vantage-symbol-VANTAGE_Integrado_Light">
                    <!-- Base "V" com máscara -->
                    <path d="M -54 -45 L -18 -45 L 0 -6 L 18 -45 L 54 -45 L 10 50 L -10 50 Z" fill="#0f172a" mask="url(#gap-mask-VANTAGE_Integrado_Light)" />
                    
                    <!-- Camadas da Lente -->
                    <path d="M -33 -6 Q 0 -44 33 -6 Q 0 32 -33 -6 Z" fill="#00E5FF" />
                    <path d="M -26 -6 Q 0 -34 26 -6 Q 0 22 -26 -6 Z" fill="#0f172a" />
                    <circle cx="0" cy="-6" r="11" fill="#00E5FF" />
                    <circle cx="4.5" cy="-10.5" r="2.8" fill="#ffffff" />
                </g>
            </defs>

                    <use href="#vantage-symbol-VANTAGE_Integrado_Light" x="0" y="0" />
                    <text x="34" y="2.5" fill="#0f172a" font-size="135" class="vantage-text" dominant-baseline="central">ANTAGE</text>
                
</svg>